M48
;DRILL file {KiCad 5.0.1-33cea8e~68~ubuntu16.04.1} date Tue 05 Mar 2019 15:27:11 GMT
;FORMAT={-:-/ absolute / inch / decimal}
FMAT,2
INCH,TZ
T1C0.0160
T2C0.0240
T3C0.0295
T4C0.0315
T5C0.0319
T6C0.0354
T7C0.0394
T8C0.0433
T9C0.0669
T10C0.1000
T11C0.1260
%
G90
G05
M72
T1
X0.975Y1.675
X1.125Y1.675
X1.875Y2.
X1.875Y1.775
X2.675Y2.8
X2.725Y2.75
X2.775Y2.7
X2.825Y2.65
X2.825Y2.325
X2.825Y1.275
X2.875Y2.6
X2.875Y1.625
X2.875Y1.275
X2.925Y1.825
X2.925Y1.275
X2.975Y2.125
X2.975Y1.275
X3.025Y1.725
X3.025Y1.275
X3.075Y1.525
X3.075Y1.275
X3.1Y3.275
X3.1Y3.175
X3.1Y3.075
X3.1Y2.975
X3.1Y2.875
T2
X2.125Y2.35
X2.675Y2.4
T3
X0.4Y0.35
X0.45Y0.3
X0.5Y0.35
X0.4Y0.15
X0.45Y0.1
X0.5Y0.15
T4
X0.75Y1.375
X0.75Y1.275
X0.75Y1.175
X0.75Y1.075
X0.75Y0.975
X0.75Y0.875
X0.75Y0.775
X0.75Y0.675
X0.75Y0.575
X2.95Y0.45
X3.35Y0.45
X2.4Y2.575
X2.4Y2.1813
X2.1531Y0.775
X2.35Y0.775
X1.7Y0.825
X1.7Y0.725
X1.7Y0.625
X1.7Y0.525
X2.Y0.825
X2.Y0.725
X2.Y0.625
X2.Y0.525
X1.15Y0.15
X1.55Y0.15
X1.325Y2.025
X1.325Y1.625
X0.65Y1.375
X0.65Y1.275
X0.65Y1.175
X0.65Y1.075
X0.65Y0.975
X0.65Y0.875
X0.65Y0.775
X0.65Y0.675
X0.65Y0.575
X1.8016Y0.175
X1.9Y0.175
X0.9Y3.575
X0.9Y3.475
X0.9Y3.375
X0.9Y3.275
X0.9Y3.175
X0.9Y3.075
X0.9Y2.975
X0.9Y2.875
X0.9Y2.775
X0.9Y2.675
X1.2Y3.575
X1.2Y3.475
X1.2Y3.375
X1.2Y3.275
X1.2Y3.175
X1.2Y3.075
X1.2Y2.975
X1.2Y2.875
X1.2Y2.775
X1.2Y2.675
X0.9Y1.375
X0.9Y1.275
X0.9Y1.175
X0.9Y1.075
X0.9Y0.975
X0.9Y0.875
X0.9Y0.775
X0.9Y0.675
X0.9Y0.575
X0.9Y0.475
X1.2Y1.375
X1.2Y1.275
X1.2Y1.175
X1.2Y1.075
X1.2Y0.975
X1.2Y0.875
X1.2Y0.775
X1.2Y0.675
X1.2Y0.575
X1.2Y0.475
X1.05Y1.1187
X1.05Y0.725
X0.65Y3.575
X0.65Y3.475
X0.65Y3.375
X0.65Y3.275
X0.65Y3.175
X0.65Y3.075
X0.65Y2.975
X0.65Y2.875
X0.65Y2.775
X0.9Y2.475
X0.9Y2.375
X0.9Y2.275
X0.9Y2.175
X0.9Y2.075
X0.9Y1.975
X0.9Y1.875
X0.9Y1.775
X0.9Y1.675
X0.9Y1.575
X1.2Y2.475
X1.2Y2.375
X1.2Y2.275
X1.2Y2.175
X1.2Y2.075
X1.2Y1.975
X1.2Y1.875
X1.2Y1.775
X1.2Y1.675
X1.2Y1.575
X0.75Y2.475
X0.75Y2.375
X0.75Y2.275
X0.75Y2.175
X0.75Y2.075
X0.75Y1.975
X0.75Y1.875
X0.75Y1.775
X0.75Y1.675
X0.65Y2.475
X0.65Y2.375
X0.65Y2.275
X0.65Y2.175
X0.65Y2.075
X0.65Y1.975
X0.65Y1.875
X0.65Y1.775
X0.65Y1.675
X2.9Y3.625
X3.3Y3.625
X0.65Y0.15
X1.05Y0.15
X1.05Y2.2187
X1.05Y1.825
X1.6563Y0.375
X2.05Y0.375
X1.15Y0.3
X1.55Y0.3
X0.65Y0.3
X1.05Y0.3
X2.1531Y0.525
X2.35Y0.525
X2.45Y0.45
X2.85Y0.45
X1.05Y3.3187
X1.05Y2.925
X0.75Y3.575
X0.75Y3.475
X0.75Y3.375
X0.75Y3.275
X0.75Y3.175
X0.75Y3.075
X0.75Y2.975
X0.75Y2.875
X0.75Y2.775
X2.9Y3.45
X3.3Y3.45
T5
X0.15Y2.75
X0.15Y2.65
X0.15Y2.55
X0.15Y2.45
X0.15Y2.35
X0.15Y2.25
X0.15Y2.15
X0.15Y2.05
X0.15Y1.95
X0.15Y1.85
X0.15Y1.75
X0.15Y1.65
X0.15Y1.55
X0.15Y1.45
X0.15Y1.35
X0.15Y1.25
X0.15Y1.15
X0.25Y2.75
X0.25Y2.65
X0.25Y2.55
X0.25Y2.45
X0.25Y2.35
X0.25Y2.25
X0.25Y2.15
X0.25Y2.05
X0.25Y1.95
X0.25Y1.85
X0.25Y1.75
X0.25Y1.65
X0.25Y1.55
X0.25Y1.45
X0.25Y1.35
X0.25Y1.25
X0.25Y1.15
T6
X3.475Y3.625
X3.575Y3.625
X3.475Y3.45
X3.575Y3.45
T7
X1.5Y3.275
X1.5Y3.175
X1.5Y3.075
X1.5Y2.975
X1.5Y2.875
X1.5Y2.775
X1.5Y2.675
X1.5Y2.575
X1.5Y2.475
X1.5Y2.375
X1.5Y2.275
X1.5Y2.175
X1.5Y2.075
X1.5Y1.975
X1.5Y1.875
X1.5Y1.775
X1.5Y1.675
X1.5Y1.575
X1.5Y1.475
X1.5Y1.375
X1.6Y3.275
X1.6Y3.175
X1.6Y3.075
X1.6Y2.975
X1.6Y2.875
X1.6Y2.775
X1.6Y2.675
X1.6Y2.575
X1.6Y2.475
X1.6Y2.375
X1.6Y2.275
X1.6Y2.175
X1.6Y2.075
X1.6Y1.975
X1.6Y1.875
X1.6Y1.775
X1.6Y1.675
X1.6Y1.575
X1.6Y1.475
X1.6Y1.375
X0.35Y0.575
X0.45Y0.575
X0.1Y0.575
X0.2Y0.575
X3.5Y2.275
X3.5Y2.175
X3.5Y2.075
X3.5Y1.975
X3.5Y1.875
X3.5Y1.775
X3.6Y2.275
X3.6Y2.175
X3.6Y2.075
X3.6Y1.975
X3.6Y1.875
X3.6Y1.775
X3.2Y3.275
X3.2Y3.175
X3.2Y3.075
X3.2Y2.975
X3.2Y2.875
X3.2Y2.775
X3.2Y2.675
X3.2Y2.575
X3.2Y2.475
X3.2Y2.375
X3.2Y2.275
X3.2Y2.175
X3.2Y2.075
X3.2Y1.975
X3.2Y1.875
X3.2Y1.775
X3.2Y1.675
X3.2Y1.575
X3.2Y1.475
X3.2Y1.375
X3.3Y3.275
X3.3Y3.175
X3.3Y3.075
X3.3Y2.975
X3.3Y2.875
X3.3Y2.775
X3.3Y2.675
X3.3Y2.575
X3.3Y2.475
X3.3Y2.375
X3.3Y2.275
X3.3Y2.175
X3.3Y2.075
X3.3Y1.975
X3.3Y1.875
X3.3Y1.775
X3.3Y1.675
X3.3Y1.575
X3.3Y1.475
X3.3Y1.375
X3.5Y3.175
X3.5Y3.075
X3.5Y2.975
X3.5Y2.875
X3.5Y2.775
X3.5Y2.675
X3.6Y3.175
X3.6Y3.075
X3.6Y2.975
X3.6Y2.875
X3.6Y2.775
X3.6Y2.675
T8
X3.025Y0.325
X3.025Y0.1478
X3.2809Y0.325
X3.2809Y0.1478
X2.525Y0.325
X2.525Y0.1478
X2.7809Y0.325
X2.7809Y0.1478
T9
X3.5441Y1.125
X3.8Y1.2726
X3.8Y0.9774
X3.5441Y0.625
X3.8Y0.7726
X3.8Y0.4774
T10
X0.1799Y2.9799
X0.1799Y0.9201
T11
X3.75Y3.75
X0.15Y3.75
X3.75Y0.15
X0.15Y0.15
T7
X3.5244Y0.9163G85X3.4457Y0.9163
G05
X3.8Y1.1644G85X3.8Y1.0856
G05
X3.5244Y0.4163G85X3.4457Y0.4163
G05
X3.8Y0.6644G85X3.8Y0.5856
G05
T0
M30
