G04 #@! TF.GenerationSoftware,KiCad,Pcbnew,5.0.1-33cea8e~68~ubuntu16.04.1*
G04 #@! TF.CreationDate,2019-03-05T15:27:08+00:00*
G04 #@! TF.ProjectId,Music5000,4D75736963353030302E6B696361645F,rev?*
G04 #@! TF.SameCoordinates,PX3021c70PY8dff518*
G04 #@! TF.FileFunction,Legend,Bot*
G04 #@! TF.FilePolarity,Positive*
%FSLAX46Y46*%
G04 Gerber Fmt 4.6, Leading zero omitted, Abs format (unit mm)*
G04 Created by KiCad (PCBNEW 5.0.1-33cea8e~68~ubuntu16.04.1) date Tue 05 Mar 2019 15:27:08 GMT*
%MOMM*%
%LPD*%
G01*
G04 APERTURE LIST*
%ADD10C,0.120000*%
%ADD11C,0.150000*%
G04 APERTURE END LIST*
D10*
G04 #@! TO.C,C1*
X26670000Y83255000D02*
X26670000Y81965000D01*
X26670000Y75335000D02*
X26670000Y76625000D01*
X28340000Y81965000D02*
X28340000Y76625000D01*
X25000000Y81965000D02*
X28340000Y81965000D01*
X25000000Y76625000D02*
X25000000Y81965000D01*
X28340000Y76625000D02*
X25000000Y76625000D01*
G04 #@! TO.C,C2*
X26670000Y55315000D02*
X26670000Y54025000D01*
X26670000Y47395000D02*
X26670000Y48685000D01*
X28340000Y54025000D02*
X28340000Y48685000D01*
X25000000Y54025000D02*
X28340000Y54025000D01*
X25000000Y48685000D02*
X25000000Y54025000D01*
X28340000Y48685000D02*
X25000000Y48685000D01*
G04 #@! TO.C,C3*
X26670000Y27375000D02*
X26670000Y26085000D01*
X26670000Y19455000D02*
X26670000Y20745000D01*
X28340000Y26085000D02*
X28340000Y20745000D01*
X25000000Y26085000D02*
X28340000Y26085000D01*
X25000000Y20745000D02*
X25000000Y26085000D01*
X28340000Y20745000D02*
X25000000Y20745000D01*
G04 #@! TO.C,C4*
X60960000Y56445000D02*
X60960000Y57735000D01*
X60960000Y64365000D02*
X60960000Y63075000D01*
X59290000Y57735000D02*
X59290000Y63075000D01*
X62630000Y57735000D02*
X59290000Y57735000D01*
X62630000Y63075000D02*
X62630000Y57735000D01*
X59290000Y63075000D02*
X62630000Y63075000D01*
G04 #@! TO.C,C1*
D11*
X27027142Y79461667D02*
X27074761Y79509286D01*
X27122380Y79652143D01*
X27122380Y79747381D01*
X27074761Y79890239D01*
X26979523Y79985477D01*
X26884285Y80033096D01*
X26693809Y80080715D01*
X26550952Y80080715D01*
X26360476Y80033096D01*
X26265238Y79985477D01*
X26170000Y79890239D01*
X26122380Y79747381D01*
X26122380Y79652143D01*
X26170000Y79509286D01*
X26217619Y79461667D01*
X27122380Y78509286D02*
X27122380Y79080715D01*
X27122380Y78795000D02*
X26122380Y78795000D01*
X26265238Y78890239D01*
X26360476Y78985477D01*
X26408095Y79080715D01*
G04 #@! TO.C,C2*
X27027142Y51521667D02*
X27074761Y51569286D01*
X27122380Y51712143D01*
X27122380Y51807381D01*
X27074761Y51950239D01*
X26979523Y52045477D01*
X26884285Y52093096D01*
X26693809Y52140715D01*
X26550952Y52140715D01*
X26360476Y52093096D01*
X26265238Y52045477D01*
X26170000Y51950239D01*
X26122380Y51807381D01*
X26122380Y51712143D01*
X26170000Y51569286D01*
X26217619Y51521667D01*
X26217619Y51140715D02*
X26170000Y51093096D01*
X26122380Y50997858D01*
X26122380Y50759762D01*
X26170000Y50664524D01*
X26217619Y50616905D01*
X26312857Y50569286D01*
X26408095Y50569286D01*
X26550952Y50616905D01*
X27122380Y51188334D01*
X27122380Y50569286D01*
G04 #@! TO.C,C3*
X27027142Y23581667D02*
X27074761Y23629286D01*
X27122380Y23772143D01*
X27122380Y23867381D01*
X27074761Y24010239D01*
X26979523Y24105477D01*
X26884285Y24153096D01*
X26693809Y24200715D01*
X26550952Y24200715D01*
X26360476Y24153096D01*
X26265238Y24105477D01*
X26170000Y24010239D01*
X26122380Y23867381D01*
X26122380Y23772143D01*
X26170000Y23629286D01*
X26217619Y23581667D01*
X26122380Y23248334D02*
X26122380Y22629286D01*
X26503333Y22962620D01*
X26503333Y22819762D01*
X26550952Y22724524D01*
X26598571Y22676905D01*
X26693809Y22629286D01*
X26931904Y22629286D01*
X27027142Y22676905D01*
X27074761Y22724524D01*
X27122380Y22819762D01*
X27122380Y23105477D01*
X27074761Y23200715D01*
X27027142Y23248334D01*
G04 #@! TO.C,C4*
X61317142Y60491667D02*
X61364761Y60539286D01*
X61412380Y60682143D01*
X61412380Y60777381D01*
X61364761Y60920239D01*
X61269523Y61015477D01*
X61174285Y61063096D01*
X60983809Y61110715D01*
X60840952Y61110715D01*
X60650476Y61063096D01*
X60555238Y61015477D01*
X60460000Y60920239D01*
X60412380Y60777381D01*
X60412380Y60682143D01*
X60460000Y60539286D01*
X60507619Y60491667D01*
X60745714Y59634524D02*
X61412380Y59634524D01*
X60364761Y59872620D02*
X61079047Y60110715D01*
X61079047Y59491667D01*
G04 #@! TD*
M02*
